<?xml version="1.0" encoding="utf-8"?>
<!-- Generator: Adobe Illustrator 19.0.0, SVG Export Plug-In . SVG Version: 6.00 Build 0)  -->
<svg version="1.1" id="Layer_1" xmlns="http://www.w3.org/2000/svg" xmlns:xlink="http://www.w3.org/1999/xlink" x="0px" y="0px"
	 viewBox="0 0 120 120" style="enable-background:new 0 0 120 120;" xml:space="preserve">
<style type="text/css">
	.st0{stroke:#FFFFFF;stroke-miterlimit:10;}
</style>
<g id="XMLID_1_">
	<path id="XMLID_7_" class="st0" d="M52,28.1l-15.2,75.3l15.6,12.7c0,0,55.4,9.4,55.4-45.3S52,13.4,52,28.1z M60.7,105.5L49,95.9
		l11.4-56.5c0-11,41.9-9,41.9,32S60.7,105.5,60.7,105.5z"/>
	<path id="XMLID_85_" class="st0" d="M39.5,61.5c1.3-0.1,1.5-1,1.5-1.8c0.5-11.4,0.9-22.8,1.4-34.2c0.1-2.6,0.2-5.3,0.6-7.9
		c0.3-1.7-1.3-2.9-1.5-4.4c-0.3-1.4-0.4-2.6,1.1-3.6c0.5-0.3,1-0.8,1-1.3c0.1-2.1,1.8-2.2,3.8-2.2c2.2,0,2.7,1.1,2.8,2.6
		c0.1,0.7,0.4,1.3,0.5,1.9c0.2,1.6-0.1,2.9-2.8,2.1c-0.9-0.2-2.1-0.4-2.2,0.5c-0.1,1,1.3,0.6,1.9,0.6c1.7,0.1,2.3,0.7,2.5,2.1
		c0.1,0.9,0,1.8,0.7,2.6c-0.2,0.3-0.5,0.7-0.5,1c0,4.8,0.1,9.6,0.2,14.4c0.1,5.7,0,11.4,0.1,17.1c0,4.2,0.3,8.3,0.2,12.5
		c0,1.8,0.7,3.7-0.5,5.5c-1.7,1.1-0.5,2,0.4,2.8c-0.1,1.4,1,2.8,0.3,4.2c-0.7-0.3-0.8,0.4-1.3,0.5c-1.8,0.4-3.8,0.9-0.5,2.1
		c0.4,0.1,0.6,0.3,0.5,0.7c-0.2,0.6-0.8,0.8-1.5,0.7c-1.8-0.2-2,0.6-1.9,1.8c0.1,2,0,4,0,6c0,1.1,0.1,2.1,1.6,2.5
		c1.8,0.5,1.8,1.7,2,3c0.3,2-0.5,4.2,1.1,6.1c0.4,2.1-0.5,4.2,0.1,6.2c-2-0.7-4.1-0.2-6.1,0c-1.3,0.1-2.2,0.9-2.1,2
		c0.2,1.4,1.3,0.5,2,0.4c0.1,0,0.4,0.1,0.5,0.2c1.7,1.3,3.9,1.3,6,1.6c0.4,1,0.2,2.3,1.8,2.7c-0.7,4.1,0.2,3.9-5.6,3.8
		c-2.5-0.1-5.1-0.2-7.6-0.1c-1.9,0-3-0.6-3.8-2c-1.6-2.8-3.2-5.5-4.8-8.2c-0.3-0.5-0.4-1.1-1.1-1.1c-0.9,0-1.1,0.7-1.3,1.2
		c-0.7,1.5-1.7,3-2.9,4.3c-2.7,2.9-6.9,2.8-8.6-0.6c-2-3.8-2.9-7.8-1.9-12.1c1-4.3,1-8.8,1.4-13.3c0.8-8.1,1.6-16.3,5.9-23.8
		c1.2-2.1,2.3-4.2,3.4-6.3c2.3-4.5,1.7-9.1,1.8-13.8c0.1-4.4-0.9-8.9,0.5-13.3c1.7-5.4,3.5-10.7,5.3-16c0.3-0.9,0.6-2.1,2.1-2.1
		c1.5,0,2.4,1.1,2.7,2.2c0.9,2.5,3.2,4.8,2.5,7.6c-2.2,1.2-3.9,2.8-5.6,4.4c-1.5,1.4-2.9,3.1-2.8,5.1c0.2,4.8,2.5,9.1,4.2,13.6
		c0.8,2.1,0.7,4.2-0.3,6.3c-1.7,3.7-4.5,6.8-6.9,10.2c-3,4.1-5.6,8.2-6.1,13c-0.8,7.4,1.2,14.4,3.8,21.4c1.9,4.9,4.2,9.6,7,14.2
		c0.4,0.8,0.9,1.6,1.3,2.4c0.5,0.9,0.9,2.3,2.3,2.1c1.4-0.2,0-1.5,0.5-2.3c0.2-0.3,0.3-0.7,0.3-1.1c-0.3-8.7,1.2-17.2,1.2-25.9
		c0-5.2,0.4-10.3,0.6-15.5c0-1.3,0.1-2.6-2.2-2.7c-0.4-0.3-1-0.5-0.9-1.1c0.6,0,1.2-0.1,1.8-0.1c0.4,0,0.9,0.3,1-0.3
		c0.1-0.5-0.5-0.7-1-0.8C39.4,61.9,39.4,61.7,39.5,61.5z M43.1,74.1c-0.3,0-0.7,0-1,0c-0.8,4.2-0.4,8.4,0.5,12.6
		C42.8,82.4,43,78.3,43.1,74.1z M42.2,89c-1.2,1.8-0.9,3.4-1.2,4.9c-0.1,0.4,0,1,0.6,1c0.7,0.1,1.2-0.4,1.2-0.9
		C42.6,92.5,43.2,91,42.2,89z"/>
	<path id="XMLID_81_" class="st0" d="M51,76.2c0.7-1.4-0.4-2.8-0.3-4.2c0.7-1,0.4-2-0.4-2.8c1.2-1.8,0.5-3.7,0.5-5.5
		c0.1-4.2-0.2-8.3-0.2-12.5c-0.1-5.7-0.1-11.4-0.1-17.1c0-4.8-0.1-9.6-0.2-14.4c0-0.3,0.3-0.7,0.5-1c7.9,4.1,12,9,8.9,16.3
		c-0.8,1.9-1.5,3.8-2.4,5.6c-1.8,3.8-1.6,7.5,0.9,11.1c2.4,3.5,4.7,7,7.1,10.5c4.3,6.3,4.9,13,3,19.8c-1.5,5.4-2.8,10.8-5.8,15.9
		c-2.6,4.4-4.6,9-7.5,13.3c-0.4,0.7-0.8,1.3-1.7,1.7c-1.6-0.4-1.5-1.7-1.8-2.7c-0.1-1.4-0.2-2.8-0.3-4.2c-0.5-2.1,0.3-4.2-0.1-6.2
		C51.1,91.8,51,84,51,76.2z M56.4,69c-0.7,2.9,2.4,4.2,3.7,6.3c0.2,0.3,0.2,0.8,0.8,0.7c0.7-0.2,0.5-0.7,0.4-1.1
		c-0.2-0.4-0.2-0.9-0.6-1.2c-1.3-1.3-1-2,0.9-2.5c0.7-0.2,1.8-0.5,1.2-1.3c-0.4-0.6-1.6-0.6-2.2-0.2c-1,0.9-1.6,0.4-2.4-0.2
		C57.8,69.1,57.2,68.8,56.4,69z M60.3,84c0.7-0.5,1-1,0.6-1.6c-0.3-0.5-0.8-0.8-1.5-0.6c-1,0.3-0.8,0.9-0.4,1.4
		C59.3,83.6,59.6,84.1,60.3,84z"/>
	<path id="XMLID_77_" class="st0" d="M34.5,107.3c-2.8-4.6-5.1-9.3-7-14.2c-2.7-7-4.7-14-3.8-21.4c0.5-4.9,3.2-9,6.1-13
		c2.4-3.3,5.2-6.5,6.9-10.2c1-2.1,1.1-4.2,0.3-6.3c-1.7-4.5-4-8.8-4.2-13.6c-0.1-2,1.3-3.6,2.8-5.1c1.7-1.6,3.4-3.3,5.6-4.4
		c0.2,1.5,0.1,2.9-0.1,4.4c-0.8,6.9-0.6,13.7-0.7,20.6c0,3.7,0.5,7.7-1,11c-1.2,2.5,0.6,4.2,0,6.3c0,0.2-0.1,0.4-0.1,0.7
		c-0.6,0.4-1.5,0.5-1.8,1.1c-0.1,0.6,0.6,0.8,0.9,1.1c-0.1,1,0.9,2,0.4,3c-0.5,1.1-0.1,2.1,0,3.1c0.1,2.2,1.3,4.8-2.1,6.3
		c-0.7,0.1-1.4,0.2-2,0.4c-1.9,0.5-1.8,1.3-0.3,2.1c2.8,0.8,3.8,2.5,3.7,4.8c0,0.8,0.3,1.6,0.4,2.4C39,93.7,37.8,100.6,34.5,107.3z
		 M32.2,73.1c-0.3,0.1-0.8,0.4-0.6,0.6c0.4,0.3,0.8,0,1-0.3c1.1-1.1,3.3-1.6,3.1-3.6c0-0.3,0.7-0.8-0.2-1c-0.4-0.1-1-0.2-1.2,0.1
		c-0.9,1.4-1.9,0.5-2.9,0.3c-0.6-0.1-1.3-0.9-1.8-0.1c-0.4,0.7,0.5,1.1,1.1,1.3C33,70.7,32.8,71.8,32.2,73.1z M33.3,81.5
		c-0.4-0.5-0.8-1-1.5-0.6c-1,0.4-0.9,1.2-0.6,1.9c0.2,0.3,0.4,0.8,0.9,0.5C32.8,82.8,33.5,82.3,33.3,81.5z"/>
	<path id="XMLID_76_" class="st0" d="M36.8,76.8c3.4-1.5,2.2-4.1,2.1-6.3c0-1-0.5-2,0-3.1c0.5-1-0.5-2-0.4-3
		c2.2,0.1,2.2,1.5,2.2,2.7c-0.2,5.2-0.6,10.3-0.6,15.5c0.1,8.7-1.5,17.2-1.2,25.9c0,0.4-0.1,0.8-0.3,1.1c-0.5,0.8,0.9,2.1-0.5,2.3
		c-1.4,0.2-1.8-1.2-2.3-2.1c-0.5-0.8-0.9-1.6-1.3-2.4c3.3-6.7,4.5-13.6,4-20.8c-0.1-0.8-0.4-1.6-0.4-2.4c0.1-2.3-0.9-4-3.7-4.8
		C35.9,78.9,37,78.2,36.8,76.8z"/>
	<path id="XMLID_75_" class="st0" d="M51,76.2c0,7.8,0.1,15.6,0.1,23.4c-1.5-1.9-0.8-4-1.1-6.1c-0.2-1.3-0.2-2.5-2-3
		c-1.5-0.4-1.7-1.4-1.6-2.5c0.1-2,0.2-4,0-6c-0.1-1.3,0.1-2,1.9-1.8c0.6,0.1,1.3-0.1,1.5-0.7c0.1-0.3-0.2-0.5-0.5-0.7
		c-3.3-1.2-1.4-1.7,0.5-2.1C50.2,76.6,50.3,75.8,51,76.2z"/>
	<path id="XMLID_74_" class="st0" d="M51.2,105.8c0.1,1.4,0.2,2.8,0.3,4.2c-2.1-0.3-4.3-0.3-6-1.6c-0.1-0.1-0.3-0.2-0.5-0.2
		c-0.8,0.1-1.9,1-2-0.4c-0.1-1.1,0.8-1.9,2.1-2C47.1,105.6,49.2,105.2,51.2,105.8z"/>
	<path id="XMLID_73_" class="st0" d="M43.1,74.1c-0.2,4.2-0.4,8.4-0.6,12.5c-0.9-4.2-1.2-8.4-0.5-12.6
		C42.5,74.1,42.8,74.1,43.1,74.1z"/>
	<path id="XMLID_72_" class="st0" d="M42.2,89c1,2,0.4,3.5,0.6,5c0,0.5-0.5,1-1.2,0.9c-0.6-0.1-0.7-0.6-0.6-1
		C41.3,92.4,41,90.9,42.2,89z"/>
	<path id="XMLID_71_" class="st0" d="M50.2,69.1c0.9,0.9,1.2,1.8,0.4,2.8C49.8,71.1,48.6,70.2,50.2,69.1z"/>
	<path id="XMLID_70_" class="st0" d="M37.5,63.2c0.4-0.6,1.3-0.7,1.8-1.1c0.5,0.1,1.1,0.3,1,0.8c-0.1,0.6-0.6,0.3-1,0.3
		C38.8,63.2,38.1,63.2,37.5,63.2z"/>
	<path id="XMLID_69_" class="st0" d="M56.4,69c0.8-0.3,1.4,0.1,1.9,0.5c0.8,0.6,1.3,1.1,2.4,0.2c0.5-0.5,1.7-0.5,2.2,0.2
		c0.6,0.8-0.5,1.2-1.2,1.3c-1.9,0.5-2.3,1.2-0.9,2.5c0.3,0.3,0.4,0.8,0.6,1.2c0.2,0.4,0.4,0.9-0.4,1.1c-0.6,0.1-0.6-0.4-0.8-0.7
		C58.8,73.2,55.7,71.9,56.4,69z"/>
	<path id="XMLID_68_" class="st0" d="M60.3,84c-0.7,0.1-1-0.4-1.3-0.8c-0.4-0.5-0.6-1.1,0.4-1.4c0.7-0.2,1.2,0,1.5,0.6
		C61.2,83,60.9,83.5,60.3,84z"/>
	<path id="XMLID_67_" class="st0" d="M32.2,73.1c0.6-1.3,0.7-2.4-1.5-2.8c-0.6-0.1-1.5-0.6-1.1-1.3c0.5-0.8,1.3,0,1.8,0.1
		c1.1,0.2,2.1,1.1,2.9-0.3c0.2-0.3,0.8-0.3,1.2-0.1c0.9,0.3,0.1,0.7,0.2,1c0.2,1.9-1.9,2.5-3.1,3.6C32.6,73.3,32.4,73.2,32.2,73.1z"
		/>
	<path id="XMLID_66_" class="st0" d="M36.8,76.8c0.2,1.5-0.9,2.1-2.3,2.5c-1.5-0.9-1.6-1.6,0.3-2.1C35.4,77,36.1,76.9,36.8,76.8z"/>
	<path id="XMLID_65_" class="st0" d="M33.3,81.5c0.3,0.9-0.5,1.3-1.2,1.7c-0.5,0.3-0.8-0.1-0.9-0.5c-0.3-0.7-0.4-1.5,0.6-1.9
		C32.5,80.5,32.9,81,33.3,81.5z"/>
	<path id="XMLID_64_" class="st0" d="M32.7,73.3c-0.3,0.3-0.6,0.7-1,0.3c-0.2-0.2,0.3-0.4,0.6-0.6C32.4,73.2,32.6,73.3,32.7,73.3z"
		/>
</g>
</svg>
